<?xml version="1.0" encoding="utf-8"?>
<!-- Generator: Adobe Illustrator 25.4.1, SVG Export Plug-In . SVG Version: 6.00 Build 0)  -->
<svg version="1.1" id="Layer_1" xmlns="http://www.w3.org/2000/svg" xmlns:xlink="http://www.w3.org/1999/xlink" x="0px" y="0px"
	 viewBox="0 0 9.5 15" style="enable-background:new 0 0 9.5 15;" xml:space="preserve">
<style type="text/css">
	.st0{fill:#b5b5b5;stroke:#b5b5b5;stroke-width:0.25;stroke-miterlimit:10;}
</style>
<path class="st0" d="M2,0.2c1,0,1.7,0.8,1.7,1.8C3.7,3,3,3.8,2,3.9c-1,0-1.8-0.8-1.8-1.8c0,0,0,0,0,0C0.2,1.1,1,0.3,2,0.2
	C2,0.3,2,0.3,2,0.2z M7.5,11.1c1,0,1.8,0.8,1.8,1.8s-0.8,1.8-1.8,1.8s-1.8-0.8-1.8-1.8S6.5,11.1,7.5,11.1z M2,11.1
	c1,0,1.8,0.8,1.8,1.8S3,14.7,2,14.7s-1.8-0.8-1.8-1.8S1,11.1,2,11.1z M7.5,5.7c1,0,1.7,0.8,1.7,1.8c0,1-0.7,1.8-1.7,1.8
	c-1,0-1.8-0.8-1.7-1.8c0,0,0,0,0,0C5.8,6.5,6.6,5.7,7.5,5.7C7.5,5.7,7.5,5.7,7.5,5.7z M2,5.7c1,0,1.7,0.8,1.7,1.8
	c0,1-0.7,1.8-1.7,1.8c-1,0-1.8-0.8-1.8-1.8c0,0,0,0,0,0C0.2,6.5,1,5.7,2,5.7C2,5.7,2,5.7,2,5.7z M7.5,0.2c1,0,1.7,0.8,1.7,1.8
	c0.1,1-0.6,1.8-1.6,1.9C6.7,4,5.9,3.3,5.8,2.3c0-0.1,0-0.2,0-0.3C5.8,1.1,6.6,0.3,7.5,0.2C7.5,0.3,7.5,0.3,7.5,0.2z"/>
</svg>
